<svg width="256" height="114" viewBox="0 0 256 114" fill="none" xmlns="http://www.w3.org/2000/svg">
<path d="M15.7525 6.73375C20.2177 3.75559 22.9084 2.61163 28.3396 1.3822C46.6143 -2.75397 65.5756 3.39378 72.9804 15.8562C76.2723 21.3962 76.8625 23.6285 76.8191 30.374C76.7647 38.8759 73.3135 45.6577 67.0158 49.6387C63.6372 51.7738 63.6671 52.8622 67.1493 54.5143C70.0625 55.8965 74.5985 59.7938 76.2489 62.3317C77.4239 64.1384 78.3817 62.9324 66.8788 74.1361C57.414 83.3545 56.4316 83.8205 57.0036 78.8196C57.3525 75.7665 57.2085 75.0991 55.451 71.6479C52.2673 65.3936 48.072 63.1906 37.8531 62.4043L32.4377 61.9881V54.67V47.3519L37.414 46.9767C48.5556 46.1366 53.7637 41.4606 53.7936 32.2703C53.8234 23.0788 48.7769 18.3788 38.8776 18.3788C29.5251 18.3788 24.4288 22.8183 23.4277 31.8376L23.0706 35.0576H14.6764H6.28233L4.896 33.4453C-0.217277 27.4966 5.42115 13.625 15.7525 6.73375Z" fill="white"/>
<path d="M90.2077 32.1304C95.1682 15.1501 105.318 4.75846 120.239 1.38454C132.622 -1.41506 146.59 1.02683 154.693 7.40877C159.14 10.9121 163.373 17.9257 164.981 24.4599C165.938 28.3472 165.576 28.5796 158.188 28.8203C147.318 29.1739 146.164 28.8577 141.582 24.2667C137.012 19.6873 134.575 18.3654 129.927 17.9439C121.54 17.1834 114.546 23.022 112.078 32.8452C110.713 38.2805 110.756 38.2254 105.836 40.8892C100.258 43.9095 95.1044 47.356 92.2515 49.9759C89.7019 52.3159 87.3513 53.8691 86.9573 53.474C86.2542 52.7685 88.5146 37.9251 90.2077 32.1304Z" fill="white"/>
<path fill-rule="evenodd" clip-rule="evenodd" d="M122.011 39.7031C113.816 41.3318 101.263 47.1675 97.0492 51.3072C96.6101 51.7387 94.9744 52.9652 93.4136 54.033C91.8528 55.1015 83.0272 63.4002 73.8012 72.4746C50.6685 95.2273 46.4972 97.8677 36.2039 96.2706C27.7254 94.9551 21.9137 89.3395 18.8998 79.5514L18.3589 77.7951H9.29856H0.238203L0.054358 80.3605C-0.657544 90.299 5.70452 102.636 14.3586 108.097C25.1776 114.925 49.1194 115.646 61.2147 109.51C67.596 106.272 76.1453 98.8384 82.5243 90.9805C88.7915 83.2608 89.6597 82.789 90.3693 86.7167C91.2697 91.6994 95.3186 98.6651 100.015 103.31C117.413 120.518 152.703 116.1 163.691 95.338C170.364 82.7287 169.86 65.451 162.486 54.0846C154.887 42.3704 138.28 36.4691 122.011 39.7031ZM136.551 94.2801C148.563 87.219 148.162 64.0641 135.937 58.9233C128.839 55.9387 119.917 57.2149 115.464 61.8517C108.971 68.613 109.122 84.18 115.751 91.1661C120.685 96.3678 130.499 97.8372 136.551 94.2801Z" fill="white"/>
<path fill-rule="evenodd" clip-rule="evenodd" d="M204.05 1.45772C187.244 5.52012 177.462 19.8003 175.051 43.7948C173.216 62.0531 175.403 82.9459 180.277 93.7204C182.24 98.0585 182.395 98.2681 187.439 103.408C202.386 118.64 234.815 116.722 245.627 99.9653C246.223 99.0415 247.073 97.8554 247.515 97.3285C250.119 94.2291 253.298 84.3146 254.618 75.1788C256.399 60.5572 256.631 52.2444 254.29 37.0294C249.879 9.38113 229.873 -4.7843 204.05 1.45772ZM225.163 91.7779C237.793 75.8181 234.292 25.1507 220.148 19.2026C215.441 17.2232 209.494 18.4023 205.778 22.0513C194.597 33.0314 194.36 81.0619 205.432 92.1332C211.152 97.8536 220.487 97.685 225.163 91.7779Z" fill="white"/>
</svg>
