<svg width="256" height="115" viewBox="0 0 256 115" fill="none" xmlns="http://www.w3.org/2000/svg">
<path d="M15.7525 7.06529C20.2177 4.08713 22.9084 2.94318 28.3396 1.71374C46.6143 -2.42243 65.5756 3.72533 72.9804 16.1877C76.2723 21.7278 76.8625 23.9601 76.8191 30.7056C76.7647 39.2074 73.3135 45.9892 67.0158 49.9702C63.6372 52.1054 63.6671 53.1937 67.1493 54.8458C70.0625 56.2281 74.5985 60.1254 76.2489 62.6633C77.4239 64.47 78.3817 63.2639 66.8788 74.4676C57.414 83.686 56.4316 84.1521 57.0036 79.1512C57.3525 76.0981 57.2085 75.4307 55.451 71.9795C52.2673 65.7252 48.072 63.5221 37.8531 62.7359L32.4377 62.3196V55.0016V47.6835L37.414 47.3082C48.5556 46.4681 53.7637 41.7922 53.7936 32.6018C53.8234 23.4103 48.7769 18.7104 38.8776 18.7104C29.5251 18.7104 24.4288 23.1498 23.4277 32.1692L23.0706 35.3891H14.6764H6.28233L4.896 33.7768C-0.217277 27.8281 5.42115 13.9566 15.7525 7.06529Z" fill="#16254C"/>
<path d="M90.2077 32.4619C95.1682 15.4817 105.318 5.09 120.239 1.71608C132.622 -1.08352 146.59 1.35837 154.693 7.74031C159.14 11.2436 163.373 18.2573 164.981 24.7914C165.938 28.6788 165.576 28.9112 158.188 29.1518C147.318 29.5054 146.164 29.1893 141.582 24.5982C137.012 20.0189 134.575 18.6969 129.927 18.2754C121.54 17.5149 114.546 23.3536 112.078 33.1767C110.713 38.612 110.756 38.557 105.836 41.2208C100.258 44.2411 95.1044 47.6876 92.2515 50.3075C89.7019 52.6475 87.3513 54.2007 86.9573 53.8055C86.2542 53.1 88.5146 38.2567 90.2077 32.4619Z" fill="#16254C"/>
<path fill-rule="evenodd" clip-rule="evenodd" d="M122.011 40.0346C113.816 41.6634 101.263 47.4991 97.0492 51.6388C96.6101 52.0702 94.9744 53.2967 93.4136 54.3646C91.8528 55.433 83.0272 63.7317 73.8012 72.8061C50.6685 95.5589 46.4972 98.1992 36.2039 96.6021C27.7254 95.2866 21.9137 89.671 18.8998 79.883L18.3589 78.1266H9.29856H0.238203L0.054358 80.6921C-0.657544 90.6306 5.70452 102.967 14.3586 108.429C25.1776 115.256 49.1194 115.978 61.2147 109.841C67.596 106.604 76.1453 99.1699 82.5243 91.3121C88.7915 83.5924 89.6597 83.1205 90.3693 87.0483C91.2697 92.031 95.3186 98.9966 100.015 103.642C117.413 120.85 152.703 116.431 163.691 95.6695C170.364 83.0602 169.86 65.7825 162.486 54.4161C154.887 42.7019 138.28 36.8006 122.011 40.0346ZM136.551 94.6116C148.563 87.5506 148.162 64.3956 135.937 59.2548C128.839 56.2702 119.917 57.5465 115.464 62.1832C108.971 68.9445 109.122 84.5115 115.751 91.4976C120.685 96.6993 130.499 98.1688 136.551 94.6116Z" fill="#16254C"/>
<path fill-rule="evenodd" clip-rule="evenodd" d="M204.05 1.78926C187.244 5.85167 177.462 20.1318 175.051 44.1263C173.216 62.3846 175.403 83.2774 180.277 94.0519C182.24 98.3901 182.395 98.5997 187.439 103.74C202.386 118.972 234.815 117.053 245.627 100.297C246.223 99.373 247.073 98.1869 247.515 97.66C250.119 94.5607 253.298 84.6462 254.618 75.5103C256.399 60.8887 256.631 52.576 254.29 37.3609C249.879 9.71268 229.873 -4.45276 204.05 1.78926ZM225.163 92.1094C237.793 76.1496 234.292 25.4822 220.148 19.5341C215.441 17.5547 209.494 18.7338 205.778 22.3829C194.597 33.3629 194.36 81.3934 205.432 92.4648C211.152 98.1852 220.487 98.0166 225.163 92.1094Z" fill="#16254C"/>
</svg>
